<svg width="24" height="24" viewBox="0 0 24 24" fill="none" xmlns="http://www.w3.org/2000/svg">
<path d="M2.62109 15.4789C4.03402 19.2869 7.69944 22.0007 11.9991 22.0007C16.2987 22.0007 19.9641 19.2869 21.3771 15.4789L11.9991 14.6094L2.62109 15.4789Z" fill="#FFDA44"/>
<path d="M11.9991 2C7.69944 2 4.03402 4.71376 2.62109 8.52177L11.9991 9.3913L21.3771 8.52173C19.9641 4.71376 16.2987 2 11.9991 2Z" fill="black"/>
<path d="M2.62199 8.52344C2.22004 9.60676 2 10.7785 2 12.0017C2 13.2249 2.22004 14.3966 2.62199 15.4799H21.378C21.78 14.3966 22 13.2249 22 12.0017C22 10.7785 21.78 9.60676 21.378 8.52344H2.62199Z" fill="#D80027"/>
</svg>
