<svg width="24" height="24" viewBox="0 0 24 24" fill="none" xmlns="http://www.w3.org/2000/svg">
<path d="M11.9987 22.0072C17.5251 22.0072 22.0052 17.5271 22.0052 12.0007C22.0052 6.47421 17.5251 1.99414 11.9987 1.99414C6.47226 1.99414 1.99219 6.47421 1.99219 12.0007C1.99219 17.5271 6.47226 22.0072 11.9987 22.0072Z" fill="url(#paint0_radial_201_263)"/>
<mask id="mask0_201_263" style="mask-type:alpha" maskUnits="userSpaceOnUse" x="1" y="1" width="22" height="22">
<path d="M11.9987 22.0072C17.5251 22.0072 22.0052 17.5271 22.0052 12.0007C22.0052 6.47421 17.5251 1.99414 11.9987 1.99414C6.47226 1.99414 1.99219 6.47421 1.99219 12.0007C1.99219 17.5271 6.47226 22.0072 11.9987 22.0072Z" fill="url(#paint1_radial_201_263)"/>
</mask>
<g mask="url(#mask0_201_263)">
<path d="M16.7546 0.518384C16.7245 0.542847 16.6864 0.58888 16.6686 0.621697C16.6508 0.654515 16.6333 0.681925 16.6281 0.682909C16.623 0.683893 16.6056 0.663125 16.5886 0.636949C16.5556 0.583061 16.5012 0.564019 16.4641 0.593829C16.448 0.607596 16.4439 0.628429 16.4509 0.679249C16.4565 0.722325 16.4536 0.74961 16.442 0.758522C16.4326 0.765652 16.4067 0.783968 16.3857 0.80001C16.318 0.851701 16.3064 0.847217 16.3025 0.770403C16.2964 0.647194 16.2315 0.643517 16.124 0.76029C16.0686 0.820337 16.0414 0.838899 15.9799 0.859986C15.8468 0.905419 15.7439 1.02533 15.7218 1.16194C15.7025 1.27796 15.6569 1.32676 15.5707 1.32315C15.5235 1.32143 15.5126 1.32752 15.4484 1.39058C15.3484 1.4899 15.31 1.54804 15.3055 1.60906C15.3023 1.64845 15.2798 1.69153 15.2164 1.77985C15.1687 1.84511 15.096 1.96194 15.0535 2.04092C14.9767 2.18528 14.8916 2.30715 14.8332 2.35841C14.8148 2.37396 14.7964 2.41089 14.791 2.43867C14.7846 2.46798 14.7293 2.5708 14.6655 2.67122C14.5333 2.87563 14.51 2.94292 14.5404 3.03208L14.5597 3.09126L14.4953 3.13963C14.39 3.21855 14.3737 3.31527 14.4459 3.42723C14.4822 3.4845 14.4846 3.47602 14.3701 3.59814C14.3243 3.64565 14.3199 3.6572 14.328 3.69978C14.3368 3.74624 14.335 3.7506 14.2374 3.83474C14.1067 3.94925 13.9883 4.0855 13.9554 4.15864C13.9304 4.2169 13.9248 4.32763 13.9467 4.32345C13.9531 4.32222 13.996 4.28061 14.0413 4.23052C14.1719 4.08793 14.2336 4.04675 14.2767 4.076C14.3151 4.10211 14.3059 4.14531 14.242 4.23104C14.1572 4.34751 14.0871 4.38629 13.9644 4.38828C13.883 4.38909 13.8677 4.39333 13.7976 4.43212C13.6272 4.52746 13.4022 4.7081 13.0821 5.00717C12.9209 5.15824 12.9103 5.17231 12.9224 5.20076C12.9782 5.3185 12.9749 5.37798 12.9091 5.47478C12.8874 5.50833 12.8755 5.54404 12.8754 5.57882C12.8767 5.60666 12.8765 5.68292 12.8765 5.74578C12.8767 5.89419 12.8825 5.90377 12.969 5.88729C13.0387 5.87401 13.1001 5.8877 13.106 5.91867C13.1078 5.92771 13.0625 5.99918 13.0067 6.07803L12.9031 6.22215L12.9387 6.24076C12.9792 6.2638 13.0223 6.25827 13.0801 6.22452C13.1726 6.16945 13.1782 6.26199 13.0894 6.38589C13.0216 6.47906 13.0135 6.52073 13.0491 6.60221C13.0756 6.66402 13.1264 6.69179 13.2244 6.70118C13.268 6.70492 13.3263 6.71653 13.3561 6.72555C13.3962 6.73931 13.4202 6.73876 13.4628 6.72394C13.5931 6.67771 13.7748 6.5227 14.0068 6.25916C14.1166 6.13391 14.1297 6.11135 14.1602 6.01192C14.1783 5.95231 14.1996 5.90278 14.2061 5.90155C14.2386 5.89669 14.2844 5.9896 14.3265 6.1474C14.3921 6.38631 14.4727 6.53544 14.5928 6.63958C14.6248 6.66692 14.6413 6.69052 14.6386 6.70441C14.6357 6.71701 14.6344 6.74533 14.635 6.7693C14.6367 6.80642 14.6433 6.81318 14.6967 6.83375C14.7345 6.8493 14.758 6.86754 14.7612 6.88432C14.7691 6.92561 14.7989 6.95603 14.8962 7.02441L14.9858 7.08757L15.0357 7.27198C15.1042 7.52637 15.1093 7.53879 15.1467 7.53165C15.1919 7.52304 15.3054 7.47331 15.3221 7.45543C15.3283 7.44621 15.3309 7.41763 15.326 7.39182C15.314 7.32859 15.3212 7.17742 15.3389 7.13661C15.3518 7.10607 15.358 7.10355 15.4369 7.09653C15.5158 7.08952 15.5282 7.08447 15.5972 7.03254C15.7375 6.92688 15.8699 6.64621 15.8572 6.48146C15.855 6.44846 15.8286 6.34517 15.798 6.25472C15.7127 5.99682 15.7209 5.96984 15.9314 5.79731C16.068 5.6857 16.1262 5.62645 16.1215 5.60193C16.1201 5.59419 16.1354 5.52708 16.1553 5.45641C16.175 5.38445 16.1875 5.31654 16.1827 5.30542C16.1779 5.2943 16.1489 5.28244 16.1108 5.279C16.0742 5.27661 16.0442 5.26629 16.0427 5.25855C16.041 5.24952 16.0541 5.22026 16.0729 5.19261C16.1001 5.15266 16.1017 5.14031 16.0859 5.12728C16.0654 5.11113 15.983 5.10677 15.8551 5.11644C15.751 5.12426 15.7371 5.12156 15.7086 5.0842C15.6749 5.04113 15.6636 4.98177 15.6618 4.83902C15.6606 4.7764 15.6554 4.69983 15.6494 4.66886C15.6399 4.61853 15.6491 4.59002 15.7435 4.37677C16.0315 3.72675 16.2266 3.3539 16.2821 3.34332C16.313 3.33741 16.3059 3.30669 16.2443 3.19406C16.2156 3.14201 16.1908 3.08923 16.1886 3.07762C16.1827 3.04665 16.2196 3.01555 16.3368 2.95709C16.392 2.93053 16.4365 2.90465 16.4358 2.90078C16.435 2.89691 16.4192 2.87719 16.4011 2.85925C16.338 2.79504 16.3426 2.77679 16.4637 2.65473L16.5311 2.58706L16.6712 2.62053C16.8802 2.67163 16.9303 2.68882 16.9638 2.71721C17.0101 2.75653 17.009 2.78615 16.9645 2.80533C16.8706 2.84596 16.7958 3.02873 16.7804 3.25635C16.7716 3.3717 16.7653 3.38761 16.7153 3.41319C16.6995 3.42155 16.6974 3.43132 16.707 3.44686C16.7408 3.49792 16.7415 3.50849 16.7075 3.53369C16.6891 3.54924 16.6427 3.61427 16.6016 3.67959C16.5619 3.74468 16.5107 3.81326 16.4876 3.83238C16.4562 3.85709 16.4476 3.87479 16.4523 3.89931C16.4557 3.91737 16.4501 3.96524 16.4392 4.00611C16.4202 4.08194 16.4202 4.08194 16.4632 4.20214C16.4868 4.26985 16.5338 4.40399 16.5671 4.50194C16.6334 4.69526 16.6873 4.80267 16.7329 4.83812C16.7498 4.84961 16.8515 4.88505 16.9602 4.91515C17.1493 4.96735 17.1617 4.96901 17.2345 4.95112C17.343 4.92375 17.4538 4.83844 17.6426 4.63661C17.8825 4.37958 17.9972 4.28683 18.0992 4.2674C18.143 4.25904 18.231 4.15935 18.348 3.98727C18.5138 3.74168 18.6243 3.43711 18.5982 3.30032C18.5726 3.16612 18.4057 3.04816 18.2364 3.04431C18.2014 3.04296 18.1983 3.04087 18.2013 3.00019C18.202 2.97598 18.1981 2.92725 18.1922 2.88958C18.1831 2.84184 18.1863 2.80914 18.2017 2.77811C18.213 2.75322 18.2223 2.7314 18.2218 2.72882C18.221 2.72495 18.1708 2.72784 18.1091 2.73424C17.9874 2.74809 17.98 2.74416 17.9482 2.66194C17.9331 2.6247 17.9221 2.6161 17.8763 2.60744C17.8388 2.59989 17.8132 2.58472 17.7913 2.55412C17.7569 2.50717 17.7562 2.53138 17.8072 2.18866C17.8083 2.18043 17.7303 2.11505 17.6336 2.04256C17.5371 1.97135 17.4488 1.90125 17.4368 1.88748C17.4078 1.85424 17.4017 1.81528 17.4063 1.69938L17.4101 1.59971L17.3125 1.53674C17.2425 1.49256 17.1945 1.47229 17.1467 1.46671L17.0782 1.45836L17.0039 1.30001C16.9629 1.21153 16.9284 1.12851 16.9285 1.11511C16.9261 1.09551 16.9422 1.08174 16.9865 1.06127C17.033 1.03902 17.0614 1.01222 17.1084 0.943084C17.142 0.895208 17.1677 0.847518 17.1662 0.839775C17.1623 0.819128 17.1294 0.814709 17.0623 0.827501C16.9603 0.846935 16.9089 0.808597 16.9747 0.761269C16.9994 0.743199 17.0055 0.725992 17.0032 0.686294C17.0003 0.636027 17.0024 0.632954 17.0588 0.606153C17.1362 0.570008 17.1401 0.562572 17.0955 0.538981C17.0448 0.511213 16.862 0.464475 16.8323 0.470133C16.8197 0.473884 16.7849 0.495213 16.7546 0.518384Z" fill="#96BA84"/>
<path d="M7.8809 3.24123C7.87647 3.24609 7.87531 3.26102 7.87752 3.27263C7.88318 3.30231 7.85504 3.3371 7.83998 3.32125C7.80452 3.28254 7.77687 3.29182 7.66037 3.38223C7.54959 3.46754 7.49681 3.5204 7.50124 3.54363C7.50739 3.57589 7.57253 3.60894 7.64768 3.61735C7.76223 3.62895 7.77268 3.64166 7.72267 3.70202C7.68359 3.74959 7.67868 3.75186 7.59566 3.75833C7.49537 3.76541 7.45537 3.77303 7.41008 3.79504C7.37309 3.81145 7.35847 3.86105 7.3782 3.90142C7.38908 3.92342 7.40014 3.92532 7.45821 3.91425C7.55242 3.89629 7.6194 3.92498 7.63736 3.9911C7.64934 4.03294 7.64535 4.04708 7.60904 4.10214C7.56598 4.16385 7.56468 4.16409 7.49328 4.16835C7.42212 4.17389 7.42212 4.17389 7.42126 4.21149C7.41931 4.3135 7.41397 4.3065 7.48795 4.30176C7.59518 4.29603 7.67938 4.33079 7.8337 4.44581C7.97985 4.55302 8.06146 4.58828 8.1363 4.57401C8.15824 4.56983 8.25158 4.53331 8.34185 4.49471C8.51617 4.42002 8.60116 4.3958 8.66212 4.40691C8.68989 4.41231 8.70876 4.40604 8.74483 4.37777C8.76922 4.35841 8.87669 4.2978 8.98305 4.24543C9.3102 4.08143 9.39265 3.99483 9.37345 3.83801C9.36453 3.77017 9.35599 3.74639 9.31702 3.69631C9.26176 3.62393 9.25156 3.58442 9.2805 3.5468C9.30734 3.51226 9.30144 3.48129 9.26463 3.44953C9.23931 3.42895 9.23107 3.42784 9.2103 3.44517C9.17657 3.47166 9.16348 3.46614 9.14282 3.4139C9.11639 3.34539 9.01419 3.30737 8.99417 3.35665C8.99073 3.36667 8.98428 3.39598 8.9825 3.42173C8.97679 3.483 8.96076 3.49007 8.92456 3.44749C8.89038 3.40853 8.87287 3.40786 8.81554 3.45089C8.77431 3.48014 8.77302 3.48039 8.73565 3.45274C8.686 3.41674 8.64839 3.41588 8.52186 3.44669C8.43381 3.46883 8.41673 3.47743 8.40567 3.50361C8.38435 3.55314 8.37077 3.54503 8.36671 3.48162C8.36399 3.41126 8.35066 3.40444 8.27569 3.4321C8.22297 3.45018 8.21621 3.45681 8.19889 3.5203C8.17684 3.59404 8.15263 3.62139 8.10101 3.63123C8.05843 3.63935 8.05425 3.61741 8.08004 3.52824C8.11198 3.41517 8.07368 3.29141 7.99139 3.24558C7.94781 3.22045 7.89527 3.21843 7.8809 3.24123Z" fill="#96BA84"/>
<path d="M17.9967 4.823C17.8734 4.86388 17.6633 4.96143 17.5853 5.01509C17.55 5.04054 17.4869 5.09536 17.4453 5.13673C17.3509 5.23095 17.3507 5.25774 17.4447 5.31604C17.507 5.35499 17.5085 5.35604 17.5263 5.44225C17.5425 5.52742 17.5443 5.52976 17.5786 5.52723C17.5972 5.52637 17.6362 5.50688 17.663 5.48574L17.7133 5.44806L17.7435 5.47307C17.7629 5.49076 17.773 5.50889 17.771 5.53335C17.7652 5.66418 17.7683 5.68765 17.81 5.80809C17.865 5.96343 17.8602 6.01518 17.7906 6.04985C17.7062 6.09134 17.6006 6.05663 17.4967 5.95341L17.4489 5.90635L17.321 5.92271L17.1931 5.93908L17.1661 5.98701C17.115 6.07699 17.0171 6.45407 17.0286 6.51472C17.0313 6.52891 17.0537 6.56879 17.0791 6.60406C17.1063 6.64167 17.1432 6.7229 17.1698 6.7994C17.2088 6.91235 17.2207 6.93281 17.2555 6.95425C17.2945 6.97624 17.3025 6.97606 17.4068 6.94814C17.5124 6.91998 17.5191 6.92004 17.5437 6.94345C17.5815 6.98038 17.5916 7.06137 17.5696 7.1498C17.5541 7.21562 17.5542 7.237 17.5724 7.29771C17.5969 7.37729 17.5888 7.39757 17.5198 7.42143C17.4836 7.43501 17.4751 7.43262 17.4489 7.40017L17.4178 7.36331L17.3008 7.39497C17.1492 7.43457 16.9496 7.50336 16.8681 7.54566C16.7886 7.58487 16.7542 7.57941 16.6175 7.50784C16.5652 7.47903 16.5105 7.45869 16.4963 7.4614C16.4008 7.4796 16.2362 7.59122 15.8897 7.87125C15.7947 7.9482 15.6951 8.02202 15.671 8.03597C15.6454 8.04888 15.5991 8.09381 15.5658 8.13628C15.5337 8.1785 15.5012 8.21144 15.494 8.2088C15.4881 8.20591 15.4754 8.18828 15.4676 8.16837C15.4557 8.14121 15.4342 8.12659 15.3674 8.10589C15.3206 8.09207 15.2775 8.07622 15.2737 8.07026C15.2688 8.06584 15.2768 8.04427 15.2906 8.02558C15.3222 7.98078 15.318 7.95214 15.2694 7.88652C15.1974 7.78925 15.1228 7.77003 15.0715 7.83733C15.0433 7.87211 15.0547 7.90339 15.1003 7.92545L15.1414 7.94437L15.1178 7.98229C15.0674 8.06144 14.8889 8.17036 14.8194 8.16355C14.806 8.16343 14.7815 8.16141 14.7651 8.1592C14.7406 8.15717 14.732 8.16817 14.713 8.22262C14.6934 8.27449 14.6827 8.28856 14.6554 8.29244C14.5788 8.30437 14.5528 8.29461 14.5375 8.24938L14.5225 8.20544L14.3706 8.19428C14.2864 8.1876 14.214 8.17999 14.2092 8.17556C14.2033 8.17268 14.2056 8.14951 14.2127 8.12407C14.2202 8.09992 14.2208 8.06102 14.214 8.03957C14.2033 8.00418 14.1923 7.99557 14.1146 7.97426C14.0653 7.96093 14.0211 7.94662 14.0152 7.94374C14.0091 7.93956 14.023 7.90748 14.0455 7.8711C14.1273 7.74584 14.2235 7.50685 14.2273 7.42186C14.2281 7.39095 14.2469 7.36999 14.3203 7.3132C14.3719 7.27527 14.4114 7.23698 14.4102 7.23053C14.4065 7.21117 14.3648 7.20307 14.2752 7.20277C14.2283 7.20235 14.183 7.19627 14.1746 7.18718C14.1607 7.17778 14.1629 7.13993 14.179 7.04191C14.2048 6.89657 14.1963 6.80323 14.1602 6.81012C14.1279 6.81627 14.0681 6.88117 14.0514 6.92714C14.0385 6.96438 14.0312 6.96844 13.9577 6.98246C13.9138 6.99082 13.8474 7.00748 13.8107 7.01849C13.7467 7.04007 13.7433 7.04339 13.6965 7.1419C13.6677 7.2009 13.6525 7.24791 13.6602 7.25313C13.6679 7.25836 13.6964 7.24625 13.727 7.22436C13.7563 7.20273 13.8026 7.17919 13.8302 7.1699C13.8884 7.15214 13.9833 7.16613 13.9885 7.19323C13.9937 7.22033 13.8907 7.29077 13.8174 7.31278C13.7817 7.32225 13.7214 7.3284 13.6792 7.32442C13.6385 7.32147 13.6027 7.32295 13.5993 7.32627C13.5974 7.33063 13.6159 7.4488 13.6428 7.58946C13.687 7.82174 13.6943 7.84577 13.7242 7.87618C13.7507 7.90322 13.7641 7.93812 13.7911 8.05199C13.8231 8.18496 13.8284 8.19867 13.8939 8.28248C13.9703 8.38158 13.9761 8.41925 13.922 8.47905C13.8965 8.50665 13.8864 8.50991 13.862 8.50119C13.8302 8.48853 13.8292 8.49007 13.8312 8.57794C13.8325 8.66195 13.8225 8.67989 13.7671 8.69047C13.7245 8.69859 13.7073 8.69251 13.6348 8.64213L13.5516 8.58444L13.4818 8.66729L13.4122 8.75142L13.2822 8.77756C13.1497 8.80548 13.0351 8.85675 12.972 8.91827C12.9413 8.94685 12.9448 8.993 12.983 9.06729C13.0319 9.16228 12.9982 9.23824 12.9001 9.25694C12.824 9.27145 12.8043 9.25917 12.7889 9.18586C12.76 9.04827 12.75 9.05153 12.6922 9.22569C12.6268 9.42272 12.5711 9.51625 12.4536 9.62959C12.4037 9.67654 12.3488 9.73917 12.3318 9.76916C12.3145 9.79786 12.2856 9.82878 12.2685 9.83738C12.2512 9.8447 12.1701 9.89627 12.0882 9.95067C12.0006 10.0102 11.933 10.0485 11.9214 10.044C11.9114 10.0405 11.8495 10.0523 11.7847 10.0701C11.6297 10.113 11.6143 10.1306 11.579 10.3032C11.5637 10.377 11.5382 10.4607 11.5235 10.4889C11.4753 10.5797 11.3366 10.6663 11.2644 10.652C11.2114 10.6407 11.1888 10.6624 11.1332 10.7706C11.0836 10.8684 11.0655 10.8785 10.9698 10.8606C10.8975 10.8463 10.85 10.8005 10.8334 10.7275C10.8188 10.6647 10.8103 10.6623 10.742 10.6968C10.7114 10.7119 10.6916 10.7131 10.6531 10.7003C10.5834 10.6788 10.5684 10.6844 10.5383 10.7436C10.5065 10.8085 10.5206 10.9035 10.5719 10.9619C10.6027 10.9975 10.6062 11.0088 10.6036 11.0722C10.6017 11.1113 10.5907 11.1589 10.5786 11.1799C10.5575 11.2161 10.5525 11.2183 10.4411 11.2302C10.2645 11.2505 10.259 11.2502 10.2093 11.1928L10.165 11.1424L9.86809 11.2057L9.56993 11.2692L9.53885 11.3166L9.50751 11.3627L9.5388 11.3795C9.55649 11.3882 9.58292 11.4005 9.5973 11.4058C9.63608 11.4198 9.61623 11.449 9.54059 11.4942C9.50692 11.514 9.4797 11.5325 9.48044 11.5364C9.48438 11.557 9.5416 11.6117 9.58695 11.6391C9.63796 11.6682 9.6449 11.6695 9.70924 11.6492C9.76842 11.6299 9.78851 11.6301 9.85611 11.648C9.95093 11.6754 10.0274 11.733 10.1304 11.8592C10.1898 11.9321 10.2204 11.9597 10.2559 11.9703C10.3235 11.9882 10.3235 11.9882 10.2961 12.0549L10.2701 12.1147L10.3253 12.1938C10.3876 12.2822 10.3964 12.3006 10.4467 12.4662C10.4673 12.5318 10.4977 12.6143 10.5162 12.6482L10.5483 12.7116L10.5122 12.8027C10.4924 12.8533 10.4477 13.0183 10.4133 13.168C10.3581 13.4045 10.343 13.4515 10.2965 13.5232C10.2435 13.6029 10.0481 13.8407 10.0087 13.8723C9.99465 13.883 9.95059 13.8834 9.86591 13.8741C9.79769 13.8671 9.61512 13.8564 9.46032 13.8511C9.20069 13.8431 9.16081 13.8374 8.97239 13.789C8.76572 13.7362 8.65222 13.723 8.59507 13.7459C8.57774 13.7533 8.53473 13.7521 8.50105 13.7438C8.46608 13.7358 8.38755 13.7307 8.32775 13.7327C8.20792 13.7355 8.1606 13.7258 8.0549 13.6764C8.00488 13.6525 7.97298 13.6466 7.93685 13.6534C7.87749 13.6648 7.87306 13.6696 7.83086 13.7499C7.7999 13.8119 7.79756 13.8137 7.72401 13.8277C7.55238 13.8605 7.47244 13.9252 7.45746 14.0431C7.45163 14.0896 7.45593 14.0982 7.49545 14.1441C7.51967 14.173 7.54204 14.2061 7.5445 14.219C7.54696 14.2319 7.52878 14.2769 7.50445 14.3176C7.48166 14.3594 7.45567 14.4125 7.44824 14.4367C7.43602 14.4778 7.3873 14.5379 7.25649 14.6725C7.22294 14.707 7.18208 14.7522 7.16617 14.7739L7.13723 14.8116L7.17337 14.8608C7.22353 14.9275 7.21394 14.9614 7.11994 15.0716C7.03687 15.169 7.01347 15.2216 7.02527 15.2836C7.03167 15.3171 6.99401 15.3791 6.75661 15.7333L6.48057 16.1444L6.49816 16.1945C6.52681 16.2746 6.5868 16.3648 6.64789 16.4187L6.70461 16.4708L6.69049 16.5229C6.6825 16.5512 6.64957 16.6029 6.61885 16.6382C6.55563 16.7064 6.55231 16.7311 6.59847 16.7839C6.64309 16.8355 6.62092 16.9227 6.52588 17.0625C6.48306 17.1255 6.45037 17.1785 6.4532 17.1793C6.45627 17.1814 6.60443 17.1799 6.7843 17.1764L7.1095 17.1706L7.1897 17.2195C7.23506 17.2469 7.32276 17.2931 7.38562 17.3212C7.61989 17.4277 7.71221 17.505 7.77048 17.6424C7.80202 17.7166 7.81972 17.7252 7.92621 17.7156C7.98397 17.71 8.05943 17.6849 8.23216 17.6159C8.52435 17.5 8.69917 17.456 8.91517 17.4455C9.03168 17.4394 9.08164 17.4419 9.10598 17.4573C9.14697 17.4829 9.16737 17.4777 9.21057 17.4307C9.23607 17.4031 9.27023 17.3859 9.33377 17.3684C9.39989 17.3505 9.47289 17.3125 9.62834 17.216C9.74312 17.1446 9.88218 17.0673 9.93908 17.0431C10.0663 16.988 10.0786 16.975 10.0559 16.9125L10.0388 16.8649L10.1192 16.7881C10.1644 16.7447 10.2643 16.6588 10.3435 16.5969C10.5005 16.4733 10.5096 16.4582 10.4991 16.3398C10.4954 16.2924 10.4799 16.2459 10.4459 16.1801C10.3229 15.9415 10.3697 15.8082 10.7104 15.4276C10.7939 15.3328 10.8921 15.2164 10.9284 15.1681C11.01 15.0562 11.0427 15.0313 11.1623 14.9924C11.2468 14.9656 11.2875 14.9405 11.4608 14.8112L11.661 14.662L11.7965 14.6361L11.932 14.6103L11.9403 14.5486C11.9519 14.4621 11.9579 14.4516 12.0005 14.4435C12.0212 14.4395 12.0452 14.4256 12.0534 14.412C12.0787 14.3764 12.0615 14.3142 12.0212 14.2924C11.9912 14.2754 11.9862 14.263 11.964 14.1468C11.9441 14.0423 11.9429 14.0078 11.9573 13.9502C11.9776 13.8674 12.0226 13.7947 12.0891 13.7365L12.1371 13.6939L12.2739 13.724C12.5892 13.7923 12.5552 13.7894 12.6377 13.7523C12.6786 13.7351 12.7182 13.7182 12.7272 13.7165C12.7349 13.715 12.7819 13.7368 12.8301 13.7651C12.9477 13.835 12.985 13.8412 13.1257 13.8144C13.2753 13.7859 13.2834 13.779 13.4251 13.5474C13.5535 13.337 13.6023 13.2769 13.6388 13.2793C13.6836 13.2828 13.7396 13.2467 13.8855 13.1212C14.1223 12.9183 14.1104 12.9259 14.1728 12.9448C14.2011 12.9528 14.269 12.9652 14.321 12.9714L14.4168 12.9825L14.5447 13.1133C14.6942 13.2666 14.723 13.312 14.7619 13.453C14.7798 13.5191 14.8015 13.5698 14.8219 13.5927C14.8798 13.6579 15.028 13.7406 15.2695 13.843C15.4661 13.9272 15.5333 13.9639 15.6392 14.0427C15.8076 14.1684 15.8708 14.1911 15.9926 14.1706C16.0509 14.1608 16.1017 14.1605 16.1315 14.1695C16.1867 14.1857 16.2562 14.2487 16.3027 14.3241C16.3454 14.3935 16.4039 14.4131 16.5742 14.4154C16.6399 14.4163 16.7001 14.4235 16.707 14.4316C16.7152 14.4394 16.7258 14.4668 16.7304 14.4913C16.7364 14.5156 16.7556 14.5601 16.7731 14.5888C16.8041 14.6391 16.81 14.642 16.8826 14.6442C17.0186 14.649 17.1234 14.7146 17.2147 14.8497C17.2503 14.9031 17.416 15.2112 17.4199 15.2318C17.4209 15.237 17.3944 15.2661 17.3596 15.2941C17.3022 15.3439 17.2972 15.3528 17.2948 15.4175C17.2929 15.4566 17.2838 15.5279 17.2743 15.5765C17.2557 15.675 17.2633 15.687 17.3394 15.6724C17.4285 15.6555 17.4763 15.5487 17.5098 15.2896C17.5292 15.1455 17.5292 15.1455 17.686 15.0139L17.7231 14.9841L17.6961 14.8916C17.6626 14.7723 17.653 14.7568 17.6246 14.7622C17.6117 14.7646 17.5549 14.7474 17.4967 14.7224C17.395 14.6802 17.3919 14.6781 17.3898 14.6317C17.3863 14.5642 17.4461 14.3522 17.4909 14.2781L17.5272 14.2164L17.6125 14.2215C17.6583 14.2235 17.726 14.2347 17.763 14.2463C17.8647 14.2751 18.0086 14.3493 18.0507 14.3948C18.0931 14.4415 18.1122 14.4365 18.1181 14.3766C18.1316 14.2296 17.9995 14.133 17.6815 14.0573C17.4586 14.0035 17.0461 13.8882 17.0004 13.8661C16.9694 13.8506 16.9669 13.8444 16.9759 13.8146C16.9817 13.7961 17.0007 13.7551 17.0161 13.724C17.0604 13.6407 17.0437 13.6372 16.811 13.6722C16.6356 13.699 16.6039 13.701 16.5244 13.684C16.2863 13.6345 16.1212 13.4841 16.0312 13.2364C15.9719 13.0726 15.929 13.0299 15.6951 12.9114C15.4196 12.7713 15.3671 12.7064 15.3941 12.5394C15.4075 12.462 15.406 12.4543 15.376 12.4025C15.3596 12.3722 15.3402 12.3197 15.3336 12.2848C15.3186 12.2061 15.3272 12.1951 15.5237 12.0266L15.679 11.894L15.7319 11.912C15.7607 11.9226 15.7938 11.9283 15.8067 11.9258C15.8184 11.9236 15.8402 11.9261 15.8557 11.9299C15.8814 11.9384 15.8821 11.9422 15.8579 12.0258L15.8331 12.1134L15.8782 12.1743C15.9031 12.207 15.9323 12.255 15.9411 12.28C15.9512 12.3049 15.9642 12.3238 15.9693 12.3228C15.99 12.3189 16.0305 12.2296 16.0345 12.1806C16.0397 12.1235 16.0748 12.062 16.107 12.0558C16.1199 12.0534 16.1532 12.0738 16.1826 12.1016C16.2117 12.1281 16.2458 12.1524 16.2581 12.1541C16.2705 12.1557 16.3015 12.1712 16.3264 12.1892C16.3696 12.2197 16.3724 12.2272 16.3936 12.3382L16.4157 12.4544L16.502 12.5074C16.5518 12.5367 16.595 12.574 16.6041 12.5936C16.6225 12.6343 16.6838 12.668 16.79 12.6919C16.8571 12.7072 16.8737 12.7174 16.894 12.7537L16.9184 12.7972L16.9971 12.7822C17.1289 12.7584 17.2718 12.7993 17.4583 12.9149C17.507 12.9457 17.5583 12.9694 17.5712 12.9669C17.6386 12.9554 17.869 13.0278 18.0152 13.107C18.0985 13.1513 18.1039 13.1516 18.1881 13.1088C18.2077 13.0997 18.2175 13.1018 18.2286 13.1251C18.2367 13.1396 18.2582 13.161 18.2746 13.1699C18.3028 13.1845 18.3078 13.197 18.32 13.2816C18.3314 13.3556 18.3434 13.3908 18.376 13.4421C18.3988 13.4778 18.4395 13.5437 18.464 13.5884L18.51 13.668L18.4871 13.7445C18.4383 13.8956 18.4777 13.9549 18.7436 14.1289C18.9208 14.2449 18.9369 14.2592 18.9581 14.3141C18.9712 14.3477 18.9925 14.3824 19.0051 14.392C19.0473 14.4241 19.2013 14.4603 19.292 14.459C19.403 14.4593 19.4169 14.4687 19.3796 14.5119C19.2968 14.6106 19.368 14.7174 19.5263 14.734C19.5904 14.7405 19.7791 14.6992 20.0423 14.6209C20.1929 14.5761 20.2123 14.5725 20.2341 14.5884C20.2571 14.604 20.2581 14.6092 20.245 14.6598C20.2328 14.7009 20.2177 14.7199 20.1793 14.7432C20.1322 14.7696 20.1113 14.7722 19.9435 14.7761C19.709 14.7807 19.5898 14.8075 19.5483 14.8635C19.5113 14.9147 19.498 14.9788 19.5118 15.051C19.5209 15.0988 19.5308 15.1156 19.5626 15.135C19.5974 15.1564 19.7194 15.1786 19.7607 15.1708C19.7697 15.169 19.793 15.1793 19.8133 15.1942C19.8484 15.2169 19.8536 15.2306 19.8744 15.3323C19.9106 15.5153 19.9288 15.5546 19.9855 15.5786C20.0538 15.607 20.1168 15.5937 20.136 15.5472C20.1442 15.5269 20.152 15.4907 20.1514 15.4667C20.1524 15.4438 20.1601 15.4209 20.1701 15.4177C20.1815 15.4142 20.2358 15.4533 20.2943 15.5077C20.3526 15.5608 20.406 15.6027 20.4125 15.6015C20.4267 15.5988 20.432 15.5563 20.4295 15.4806C20.4266 15.4022 20.4517 15.4001 20.5615 15.4714C20.6945 15.5584 20.7095 15.5529 20.6781 15.4305C20.6477 15.3132 20.6138 15.2756 20.4725 15.2076C20.3794 15.1611 20.3717 15.1559 20.3725 15.1183C20.3722 15.0956 20.3702 15.0639 20.367 15.0471C20.3591 15.0058 20.3813 15.003 20.4959 15.0359C20.636 15.0761 20.7019 15.0782 20.7357 15.0451C20.7708 15.0116 20.7622 14.9598 20.7193 14.9452C20.7008 14.9394 20.6394 14.9257 20.5823 14.9138L20.4781 14.8936L20.4551 14.7936C20.4409 14.7335 20.4374 14.694 20.4452 14.6926C20.4529 14.6911 20.5046 14.6959 20.5607 14.7026C20.6307 14.712 20.6963 14.733 20.7612 14.7647C20.8604 14.8153 20.8931 14.8185 20.9338 14.7866C20.9697 14.7571 20.9542 14.7319 20.8553 14.6625C20.8041 14.6255 20.7607 14.5869 20.7587 14.5766C20.7516 14.5392 20.6272 14.476 20.464 14.4268C20.3749 14.401 20.2706 14.3594 20.2314 14.3361C20.1287 14.2741 19.9698 14.065 19.9959 14.0266C20.0032 14.0159 20.0406 14.0154 20.1147 14.0254C20.2506 14.0436 20.2686 14.0402 20.2608 13.9989C20.2541 13.964 20.2572 13.9661 20.0118 13.8644C19.8321 13.7917 19.8086 13.7668 19.7866 13.6372C19.7646 13.5077 19.7683 13.408 19.7965 13.3946C19.8542 13.3676 19.9044 13.4061 20.0545 13.5902C20.1941 13.7615 20.2487 13.7952 20.2925 13.7374C20.3246 13.6952 20.306 13.6398 20.2433 13.5916C20.1934 13.5543 20.18 13.5261 20.2097 13.5205C20.2148 13.5195 20.2654 13.546 20.3199 13.5797C20.3758 13.6132 20.4315 13.6387 20.447 13.6357C20.4986 13.6259 20.4811 13.5904 20.3832 13.5115C20.3294 13.4682 20.2855 13.4271 20.2838 13.4181C20.2769 13.3819 20.3217 13.3854 20.4411 13.4295C20.513 13.456 20.5734 13.4712 20.5786 13.4635C20.5933 13.442 20.562 13.3904 20.5134 13.3596C20.4877 13.3444 20.4563 13.3197 20.443 13.3061C20.4182 13.2814 20.4182 13.2814 20.4516 13.2884C20.5051 13.3023 20.5202 13.2834 20.5335 13.1846C20.5496 13.0585 20.5788 13.0155 20.6746 12.9638C20.7184 12.9407 20.769 12.919 20.7884 12.9153C20.8078 12.9116 20.8698 12.8864 20.9265 12.8609C21.0062 12.823 21.0532 12.81 21.1264 12.8014C21.1852 12.7942 21.2351 12.782 21.2517 12.7708C21.3069 12.7309 21.3156 12.7627 21.2867 12.8845C21.2578 13.0064 21.2563 13.0267 21.2821 13.0218C21.3092 13.0166 21.5024 12.8233 21.5249 12.7803C21.5367 12.758 21.542 12.7222 21.5375 12.699C21.5304 12.6615 21.5362 12.6497 21.5933 12.5987C21.7123 12.4931 21.7576 12.4644 21.9372 12.3754C22.166 12.2635 22.1855 12.2465 22.1764 12.192C22.1732 12.1752 22.1298 12.1581 22.0142 12.1267C21.9258 12.1047 21.8351 12.0712 21.8087 12.0521C21.7839 12.0341 21.7162 11.9949 21.6585 11.9658C21.6024 11.9377 21.5204 11.8865 21.4779 11.8531L21.3994 11.7918L21.4262 11.7078C21.4518 11.6321 21.4523 11.6132 21.433 11.4912C21.4181 11.3991 21.415 11.3128 21.4209 11.21L21.4302 11.0625L21.3723 10.8782C21.341 10.7772 21.3089 10.6857 21.3038 10.6733C21.2952 10.6562 21.3222 10.6083 21.4099 10.4859C21.5463 10.2968 21.5451 10.3184 21.4271 10.1483C21.3849 10.0882 21.3508 10.0358 21.3501 10.0319C21.3491 10.0268 21.3855 10.0212 21.4314 10.0164L21.5144 10.01L21.5117 9.88344C21.5062 9.65847 21.565 9.51085 21.6988 9.41312C21.7554 9.37292 21.7815 9.3626 21.8912 9.34169L22.0163 9.31782L22.009 9.27911C21.969 9.04867 21.8422 8.25707 21.8251 8.13196C21.8046 7.97538 21.8036 7.97022 21.7813 7.98651C21.7343 8.02087 21.5675 8.03663 21.3806 8.02412C21.1257 8.00584 21.0823 8.01009 20.9956 8.06006C20.9054 8.11335 20.891 8.11477 20.8075 8.09057C20.7694 8.08044 20.71 8.07037 20.6747 8.06773L20.6098 8.06405L20.6036 7.98902C20.598 7.91786 20.594 7.91061 20.5515 7.87725C20.5246 7.85562 20.4857 7.80555 20.4621 7.75921C20.4307 7.69967 20.4067 7.67215 20.3742 7.65562C20.2513 7.59345 20.26 7.60383 20.2254 7.47135C20.2022 7.38483 20.1974 7.34562 20.2065 7.3372C20.2132 7.33056 20.2693 7.34395 20.3286 7.36742L20.4398 7.41042L20.4618 7.37145C20.4738 7.35044 20.4954 7.32358 20.5094 7.31288C20.5567 7.27312 20.5089 7.17658 20.4115 7.1149C20.3782 7.0945 20.31 7.05936 20.2574 7.03596C20.057 6.94578 20.0313 6.90922 19.9966 6.6711C19.9762 6.52921 19.9695 6.50107 19.9448 6.47637C19.9049 6.43581 19.7912 6.39331 19.6197 6.35646C19.451 6.32041 19.3733 6.27772 19.1016 6.06606C18.8726 5.88905 18.8873 5.91031 18.9012 5.77259C18.9184 5.61017 18.8954 5.53164 18.8211 5.48563C18.7588 5.44668 18.6641 5.43397 18.5218 5.44505C18.4164 5.45312 18.3063 5.42997 18.3004 5.399C18.2984 5.38867 18.3019 5.37866 18.307 5.37767C18.3303 5.37324 18.4496 5.19938 18.4451 5.17615C18.4427 5.16325 18.4235 5.14684 18.4022 5.14021C18.3554 5.12639 18.2796 5.07933 18.2764 5.06255C18.2754 5.05739 18.2852 5.03146 18.298 5.00761C18.321 4.96711 18.3537 4.83652 18.348 4.80684C18.3401 4.76555 18.1427 4.7751 17.9967 4.823Z" fill="#96BA84"/>
<path d="M10.0146 6.74455C9.93339 6.78144 9.88836 6.8609 9.88763 6.96936L9.88672 7.01367L9.96654 6.99043C10.1283 6.94088 10.2144 6.84555 10.1852 6.74815C10.1739 6.71018 10.1708 6.70809 10.1148 6.71608C10.0823 6.72094 10.0379 6.73343 10.0146 6.74455Z" fill="#96BA84"/>
<path d="M10.4222 6.79682C10.3706 6.81336 10.2698 6.9302 10.1366 7.12944C10.0951 7.19219 10.0544 7.24541 10.048 7.24664C10.0402 7.24812 10.0179 7.23632 9.9964 7.2217C9.94625 7.18312 9.87398 7.16881 9.82949 7.18799C9.80983 7.19709 9.79195 7.20852 9.7893 7.21571C9.78138 7.23728 9.90891 7.38013 9.96097 7.40766C9.98917 7.42234 10.0127 7.44059 10.0142 7.44833C10.0157 7.45607 9.97124 7.49664 9.9152 7.53942C9.76682 7.65196 9.68793 7.77131 9.70441 7.85777C9.7086 7.8797 9.72224 7.88111 9.82412 7.86838C9.95593 7.85128 9.98451 7.85385 9.99066 7.88611C9.99312 7.89902 9.964 7.98481 9.92555 8.07773C9.88709 8.17065 9.85933 8.24949 9.86394 8.25263C9.86855 8.25576 9.88225 8.25047 9.89393 8.24156C9.9056 8.23265 9.94443 8.21187 9.98013 8.19571C10.0368 8.1702 10.0499 8.16903 10.0699 8.1826C10.0899 8.19618 10.0911 8.20263 10.0797 8.24092C10.0723 8.26507 10.0471 8.30864 10.0229 8.33599C9.99896 8.36463 9.98066 8.39487 9.98238 8.4039C9.9841 8.41294 10.0063 8.43143 10.0317 8.44531C10.0858 8.47646 10.1601 8.46631 10.2654 8.41547C10.3573 8.37122 10.4195 8.3607 10.4507 8.38417C10.4911 8.4139 10.493 8.45901 10.4574 8.55273L10.427 8.63876L10.4683 8.71514C10.4922 8.75607 10.5131 8.80289 10.5161 8.81837C10.5264 8.87257 10.4887 8.96936 10.4275 9.04121C10.358 9.12535 10.358 9.12535 10.1796 9.08045C10.0364 9.04489 10.019 9.05221 10.0474 9.13105C10.0889 9.25019 10.0878 9.25173 10.04 9.26753C10.0162 9.27608 9.99732 9.28905 9.99904 9.29808C10.0008 9.30711 10.0325 9.32646 10.0713 9.34047C10.1468 9.37155 10.1572 9.39097 10.1313 9.45875C10.102 9.53656 10.0415 9.59089 9.90379 9.66127L9.77358 9.72889L9.75202 9.80521C9.71585 9.93113 9.70841 9.9272 9.94112 9.8922C10.0582 9.87522 10.149 9.86728 10.1531 9.87453C10.1789 9.91908 10.2175 9.93179 10.3026 9.92226C10.3565 9.91733 10.3915 9.91868 10.3932 9.92771C10.3967 9.94578 10.3379 10.0305 10.3019 10.0588C10.2658 10.0871 10.224 10.0924 10.1125 10.0829C10.0582 10.0785 10.0095 10.0757 10.0044 10.0767C9.98632 10.0802 9.91818 10.1787 9.89084 10.2388C9.86375 10.3001 9.86013 10.3022 9.6149 10.4398C9.47843 10.5167 9.36961 10.5842 9.37366 10.5915C9.37747 10.5974 9.40261 10.61 9.42934 10.617C9.49872 10.6372 9.63244 10.609 9.78765 10.5393C9.9527 10.465 9.98004 10.4612 10.0266 10.4951L10.064 10.5227L10.1057 10.4747C10.2067 10.3591 10.2853 10.3294 10.3812 10.37C10.458 10.4008 10.4825 10.3961 10.6332 10.3166L10.7559 10.2518L10.804 10.2934C10.8796 10.3606 10.9521 10.4042 10.9779 10.3993C11.0128 10.3927 11.0331 10.338 11.0225 10.2825C11.0174 10.2554 11.0194 10.2309 11.0279 10.2266C11.0362 10.221 11.0759 10.2188 11.1179 10.2215C11.2905 10.2287 11.4887 10.1602 11.6087 10.0531C11.7274 9.94619 11.7207 9.91805 11.5712 9.89841C11.4381 9.88097 11.4354 9.87348 11.534 9.75972C11.5801 9.7068 11.6274 9.66034 11.639 9.65812C11.6855 9.64927 11.8242 9.52788 11.873 9.45438C11.9219 9.38087 11.9237 9.37651 11.8998 9.34228C11.8678 9.29356 11.7865 9.24619 11.7242 9.24202C11.6956 9.23945 11.6092 9.24923 11.5331 9.26374C11.4286 9.28367 11.3917 9.28669 11.3841 9.27477C11.3782 9.26518 11.3909 9.17718 11.4096 9.07867C11.4703 8.77288 11.4368 8.66024 11.2528 8.55089L11.1639 8.4983L11.16 8.43617L11.1562 8.37405L11.088 8.39507C10.9792 8.42784 10.9706 8.41076 11.0064 8.24078C11.0226 8.16415 11.0337 8.0751 11.0317 8.0434C11.0293 7.98901 11.025 7.98047 10.9822 7.95252C10.9561 7.93476 10.923 7.92235 10.9075 7.9253C10.892 7.92826 10.8614 7.92205 10.8381 7.9118C10.816 7.90129 10.7818 7.89042 10.761 7.88637C10.6712 7.87139 10.7277 7.72555 10.9436 7.41292C11.1122 7.16813 11.1275 7.12911 11.0532 7.11118C11.0054 7.09889 10.8239 7.13616 10.6668 7.18885C10.5914 7.21393 10.5348 7.22604 10.5259 7.22107C10.5043 7.20645 10.6069 7.06386 10.7604 6.89417C10.8356 6.81163 10.895 6.73745 10.8936 6.72971C10.8918 6.72068 10.8808 6.71208 10.8685 6.71042C10.8464 6.70661 10.5021 6.77358 10.4222 6.79682Z" fill="#96BA84"/>
<path d="M9.27876 8.26728C9.20244 8.30189 9.16871 8.32838 9.12749 8.38572C9.10844 8.41209 9.07784 8.43397 9.05123 8.44172C8.99028 8.45869 8.9971 8.50152 9.06298 8.51036C9.11521 8.51778 9.12824 8.53001 9.12524 8.57739C9.12401 8.59902 9.10786 8.61949 9.07701 8.64008C9.03037 8.66903 9.02779 8.66952 8.94121 8.64323C8.86181 8.61958 8.84171 8.6194 8.74106 8.63859C8.64041 8.65778 8.62437 8.66485 8.58148 8.70646C8.52299 8.76441 8.51814 8.78807 8.55858 8.81781C8.57572 8.83059 8.60074 8.85658 8.61242 8.87575C8.64186 8.92497 8.61759 8.95902 8.52554 8.99529C8.48573 9.0109 8.45076 9.03094 8.44812 9.03813C8.43811 9.06277 8.49772 9.10891 8.55635 9.12181C8.58849 9.12905 8.64693 9.13396 8.68534 9.13199C8.7235 9.12873 8.75902 9.13265 8.76387 9.13708C8.77586 9.15084 8.68043 9.21851 8.63527 9.22712C8.61204 9.23155 8.58506 9.22332 8.56023 9.20532C8.51672 9.17349 8.50763 9.18191 8.49897 9.25578C8.49069 9.31754 8.47281 9.32897 8.40128 9.31854C8.32821 9.30706 8.30111 9.31222 8.28151 9.3427C8.2562 9.37829 8.27077 9.41964 8.31668 9.44299L8.35693 9.46474L8.32351 9.48582C8.30434 9.4975 8.27976 9.50887 8.26685 9.51133C8.25524 9.51354 8.23478 9.52547 8.22384 9.53825C8.20148 9.56124 8.21107 9.58348 8.26497 9.63472C8.28131 9.65033 8.27861 9.66422 8.24845 9.72346C8.22904 9.76193 8.213 9.79708 8.21399 9.80225C8.21694 9.81773 8.24724 9.82934 8.37426 9.85728C8.49176 9.88436 8.50104 9.88393 8.5886 9.85922C9.15509 9.69506 9.36075 9.60236 9.51368 9.44348C9.63306 9.31909 9.68158 9.16674 9.65955 8.98104L9.64718 8.86705L9.74936 8.76466L9.85154 8.66227L9.8187 8.50404C9.79502 8.38685 9.77953 8.33364 9.75562 8.29941C9.72384 8.25198 9.71174 8.25161 9.63075 8.28978C9.62455 8.2923 9.58024 8.29139 9.53261 8.2871C9.46569 8.27979 9.44437 8.27316 9.43453 8.24962C9.41886 8.21651 9.37965 8.2213 9.27876 8.26728Z" fill="#96BA84"/>
<path d="M14.2123 13.7521C14.056 13.9357 14.0502 13.9475 14.0434 14.0798C14.0347 14.266 14.0647 14.3673 14.1454 14.4255C14.1917 14.4581 14.2819 14.4891 14.3129 14.4832C14.3232 14.4812 14.3524 14.4449 14.378 14.4039C14.4805 14.2332 14.4877 13.8922 14.394 13.7094C14.3409 13.6059 14.3347 13.6084 14.2123 13.7521Z" fill="#96BA84"/>
<path d="M14.2847 14.6546C14.2493 14.6934 14.1859 14.7537 14.1428 14.7873C14.0071 14.8961 14.0009 14.92 14.0508 15.1886C14.0815 15.3566 14.0864 15.4172 14.0829 15.5677C14.0776 15.792 14.0919 15.8321 14.1681 15.8109C14.2342 15.7929 14.2698 15.7621 14.3197 15.6803C14.3676 15.6017 14.3823 15.5949 14.4387 15.6242C14.4611 15.636 14.4811 15.6429 14.4819 15.6401C14.491 15.625 14.5186 15.51 14.5389 15.4059L14.561 15.2906L14.5079 15.2085C14.4452 15.1108 14.4432 15.0724 14.4975 15.0206C14.5448 14.9741 14.5459 14.9164 14.5004 14.7833C14.4693 14.6903 14.39 14.5757 14.3629 14.5808C14.3551 14.5823 14.3201 14.6157 14.2847 14.6546Z" fill="#96BA84"/>
<path d="M16.9142 15.6924C16.8669 15.7108 16.759 15.7621 16.6749 15.8049C16.4823 15.9031 16.3752 15.9235 16.2441 15.8883C16.1624 15.8665 16.1596 15.8657 16.1054 15.8974C16.0751 15.9138 16.0053 15.9472 15.9507 15.9697C15.8679 16.0055 15.8454 16.0205 15.8143 16.0679C15.7662 16.1386 15.7629 16.2261 15.8082 16.2603C15.9164 16.344 16.0893 16.3952 16.5354 16.476C16.7224 16.5099 16.9099 16.5464 16.9536 16.5581L17.0312 16.5795L17.0631 16.5225C17.1108 16.4359 17.1106 16.3784 17.06 16.2182C17.0071 16.0464 17.003 15.9897 17.0334 15.8756C17.0619 15.7725 17.0542 15.655 17.0212 15.6573C17.0106 15.658 16.9628 15.6738 16.9142 15.6924Z" fill="#96BA84"/>
<path d="M17.902 20.7481C22.4814 17.66 23.6891 11.4422 20.5993 6.8602C18.267 17.3292 14.5867 19.7302 4.01562 18.043C7.1054 22.625 13.3225 23.8361 17.902 20.7481Z" fill="#315879" fill-opacity="0.2"/>
</g>
<defs>
<radialGradient id="paint0_radial_201_263" cx="0" cy="0" r="1" gradientUnits="userSpaceOnUse" gradientTransform="translate(11.9987 12.0007) rotate(90) scale(10.0065)">
<stop offset="0.786458" stop-color="#407FB4"/>
<stop offset="1" stop-color="#367BB4"/>
</radialGradient>
<radialGradient id="paint1_radial_201_263" cx="0" cy="0" r="1" gradientUnits="userSpaceOnUse" gradientTransform="translate(11.9987 12.0007) rotate(90) scale(11.101)">
<stop offset="0.65625" stop-color="#407FB4"/>
<stop offset="1" stop-color="#3C7AAE"/>
</radialGradient>
</defs>
</svg>
