<svg height="21" viewBox="0 0 21 21" width="21" xmlns="http://www.w3.org/2000/svg"><g fill="none" fill-rule="evenodd"><g fill-rule="nonzero"><path d="m.081 6.368h19.606v14.474h-19.606z" fill="#fff"/><path d="m19.11 5.79v14.473h-18.453v-14.473zm.577-.58h-19.606v15.632h19.606v-15.631z" fill="#212121" opacity=".15"/><path d="m19.687 6.368h-19.606v-4.052c0-.64.516-1.158 1.153-1.158h17.3c.637 0 1.153.518 1.153 1.158z" fill="#407fb4"/><path d="m18.534 1.737c.318 0 .576.259.576.579v3.473h-18.453v-3.473c0-.32.259-.58.577-.58h17.3zm0-.58h-17.3c-.637 0-1.153.52-1.153 1.159v4.052h19.606v-4.052c0-.64-.516-1.158-1.153-1.158z" fill="#212121" opacity=".15"/><ellipse cx="4.694" cy="4.053" fill="#212121" rx="1.153" ry="1.158"/><ellipse cx="15.074" cy="4.053" fill="#212121" rx="1.153" ry="1.158"/></g><path d="m4.694.579v3.184m10.38-3.184v3.184" stroke="#bec3c7" stroke-linecap="round" stroke-linejoin="round"/><path d="m5.559 1.737v2.026m10.38-2.026v2.026" opacity=".15" stroke="#212121" stroke-linejoin="round" stroke-width=".5"/><path d="m19.687 19.105v-4.631" fill="#eef0f1" fill-rule="nonzero"/><path d="m0 19.105h17.3l2.306-16.21v11.579 6.368h-19.606z" fill="#000" fill-rule="nonzero" opacity=".1"/></g></svg>